<svg xmlns="http://www.w3.org/2000/svg" class="brandLogo brandLogo--freddie" aria-label="Mailchimp" width="57.4753723" height="61" viewBox="0 0 57.4753723 61">
    <path d="M43.234 28.825c.445-.053.872-.055 1.264 0 .227-.52.266-1.417.062-2.394-.303-1.452-.714-2.33-1.562-2.193-.848.137-.88 1.188-.576 2.64.171.817.474 1.515.813 1.947zM35.951 29.974c.607.266.98.443 1.126.289.094-.096.066-.28-.079-.517-.299-.489-.916-.985-1.569-1.263-1.337-.575-2.931-.384-4.161.5-.406.297-.791.71-.736.96.018.081.079.142.221.162.335.038 1.505-.553 2.852-.636.952-.058 1.74.239 2.347.506zM34.73 30.671c-.79.125-1.227.385-1.506.628-.239.209-.387.44-.385.602l.06.144.13.049c.179 0 .578-.16.578-.16 1.1-.394 1.826-.346 2.545-.264.397.045.585.069.672-.067.026-.039.057-.124-.023-.253-.185-.3-.983-.808-2.072-.679zM40.774 33.228c.537.264 1.128.16 1.32-.231.192-.391-.087-.923-.624-1.186-.537-.264-1.128-.16-1.32.231-.192.391.087.923.624 1.186zM44.225 30.213c-.436-.007-.798.471-.808 1.069-.01.598.335 1.089.771 1.096.436.007.798-.471.808-1.069.01-.598-.335-1.089-.771-1.096zM14.936 40.995c-.108-.136-.287-.094-.459-.054-.121.028-.257.06-.407.057-.321-.006-.592-.143-.745-.378-.199-.305-.187-.76.032-1.281l.102-.233c.35-.785.935-2.098.278-3.349-.495-.942-1.301-1.528-2.271-1.652-.931-.118-1.89.227-2.501.902-.965 1.064-1.115 2.512-.929 3.024.068.187.175.239.253.25.164.022.407-.097.559-.506l.044-.133c.068-.216.194-.619.4-.942.249-.389.637-.657 1.093-.755.464-.099.938-.011 1.335.249.676.442.936 1.27.647 2.06-.149.409-.391 1.19-.338 1.832.108 1.299.907 1.821 1.625 1.877.698.026 1.186-.365 1.31-.652.073-.169.011-.273-.028-.317zM55.228 38.619c-.027-.094-.2-.727-.438-1.489-.238-.763-.484-1.299-.484-1.299.954-1.428.971-2.706.844-3.429-.136-.897-.509-1.661-1.261-2.451-.753-.79-2.291-1.599-4.454-2.206l-1.135-.315c-.006-.047-.06-2.675-.109-3.804-.036-.816-.106-2.089-.501-3.344-.471-1.698-1.291-3.183-2.315-4.134 2.826-2.93 4.59-6.157 4.586-8.925-.008-5.324-6.547-6.935-14.605-3.599l-1.707.725c-.008-.007-3.087-3.028-3.133-3.069-9.187-8.013-37.912 23.915-28.728 31.669l2.007 1.7c-.521 1.349-.725 2.894-.558 4.555.215 2.134 1.315 4.18 3.1 5.761 1.694 1.501 3.921 2.45 6.082 2.449 3.574 8.236 11.739 13.288 21.314 13.572 10.27.305 18.892-4.514 22.504-13.171.236-.608 1.239-3.345 1.239-5.761 0-2.429-1.373-3.435-2.247-3.435zm-42.02 6.482c-.312.053-.63.074-.951.067-3.102-.083-6.453-2.876-6.786-6.188-.368-3.661 1.502-6.478 4.814-7.146.396-.08.874-.126 1.39-.099 1.856.102 4.59 1.526 5.214 5.569.553 3.58-.325 7.225-3.682 7.797zm-3.464-15.457c-2.062.401-3.879 1.569-4.99 3.183-.664-.554-1.901-1.626-2.12-2.044-1.774-3.368 1.936-9.917 4.528-13.616 6.405-9.14 16.436-16.058 21.08-14.803.755.214 3.255 3.113 3.255 3.113s-4.642 2.575-8.947 6.166c-5.8 4.466-10.182 10.957-12.806 18.001zm32.56 14.088c.067-.028.114-.106.106-.182-.01-.094-.093-.162-.187-.153 0 0-4.859.719-9.45-.961.5-1.625 1.83-1.038 3.839-.876 3.622.216 6.868-.313 9.268-1.002 2.079-.597 4.81-1.773 6.93-3.447.715 1.571.968 3.301.968 3.301s.554-.099 1.016.186c.437.269.758.828.539 2.275-.446 2.702-1.595 4.895-3.525 6.912-1.175 1.265-2.601 2.364-4.233 3.164-.867.455-1.79.849-2.765 1.168-7.277 2.377-14.725-.236-17.126-5.847-.192-.422-.354-.863-.481-1.325-1.023-3.697-.154-8.134 2.561-10.926v-.001c.167-.178.338-.387.338-.651 0-.22-.14-.453-.262-.618-.95-1.378-4.241-3.726-3.58-8.27.474-3.264 3.329-5.563 5.991-5.427l.674.039c1.153.068 2.16.216 3.109.256 1.589.069 3.018-.162 4.711-1.573.571-.476 1.029-.888 1.803-1.02.081-.014.284-.086.689-.067.413.022.807.136 1.16.371 1.357.903 1.549 3.09 1.62 4.69.04.913.15 3.123.188 3.757.086 1.45.467 1.655 1.239 1.909.434.143.836.249 1.43.416 1.796.504 2.861 1.016 3.533 1.673.4.411.586.847.644 1.263.212 1.545-1.2 3.454-4.936 5.188-4.084 1.896-9.039 2.376-12.463 1.994l-1.199-.135c-2.738-.369-4.301 3.17-2.657 5.595 1.059 1.563 3.944 2.58 6.831 2.58 6.618.001 11.706-2.825 13.598-5.266l.151-.216c.093-.14.016-.218-.1-.138-1.546 1.058-8.413 5.258-15.759 3.994 0 0-.893-.147-1.707-.464-.647-.252-2.002-.875-2.167-2.265 5.928 1.833 9.66.1 9.66.1zm-9.39-1.108l.001.001.001.003-.002-.004zm-11.34-25.493c2.277-2.631 5.08-4.919 7.591-6.203.087-.044.179.05.132.135-.199.361-.583 1.134-.705 1.721-.019.091.081.16.158.108 1.562-1.065 4.28-2.206 6.663-2.352.102-.006.152.125.07.187-.362.278-.759.663-1.048 1.052-.049.066-.003.162.08.162 1.674.012 4.033.598 5.571 1.46.104.058.03.26-.086.233-2.327-.533-6.136-.938-10.092.027-3.532.861-6.228 2.192-8.195 3.622-.099.072-.219-.059-.138-.152z"/>
</svg>
